<?xml version="1.0" encoding="utf-8"?><!-- Generator:Adobe Illustrator 27.8.1,SVG Export Plug-In . SVG Version:6.00 Build 0) --><svg version="1.1" id="圖層_1" xmlns="http://www.w3.org/2000/svg" xmlns:xlink="http://www.w3.org/1999/xlink" x="0px" y="0px" viewBox="0 0 256 256" style="enable-background:new 0 0 256 256; " xml:space="preserve"><style type="text/css">.st0{ fill:#FFFFFF; }
</style><path class="st0" d="M134.5,236.9C73.5,236.9,24,188,24,128C24,68,73.5,19.1,134.4,19.1c26,0,50.7,8.8,70.4,25c0,0,3.7-3.7,3.7-3.7c2.6-2.5,6.1-3.9,9.7-3.9c7.6,0,13.8,6.2,13.8,13.8v40.9c0,7.6-6.2,13.8-13.8,13.8h-41.1c-5.6,0-10.6-3.3-12.8-8.5c-2.2-5.2-1-11.1,3-15.1l3-3c-3.6-2.5-7.5-4.6-11.5-6.3c-7.8-3.2-16-4.8-24.4-4.8c-8.6,0-16.7,1.6-24.3,4.8c-7.5,3.1-14.1,7.5-19.8,13.1c-11.6,11.4-18,26.5-18,42.6c0,16.1,6.4,31.2,18,42.6c5.7,5.6,12.3,10,19.8,13.1c7.8,3.2,16,4.8,24.4,4.8c8.6,0,16.7-1.6,24.3-4.8c7.2-3,13.7-7.2,19.2-12.5c1.9-1.9,4.4-2.8,6.9-2.8c2.6,0,5.1,1,7.1,2.9l20.1,20.1c1.9,1.9,2.9,4.5,2.9,7.1c0,2.7-1.1,5.2-3,7.1C191.1,225.8,163.6,236.9,134.5,236.9z"/><path d="M215.5,47.6L205,58.1l-0.2-0.6c-18.1-17.6-43-28.4-70.4-28.4C78.9,29.1,34,73.4,34,128s45,98.9,100.5,98.9c27.5,0,52.3-10.8,70.4-28.4l-20.1-20.1c-6.5,6.2-13.9,11.1-22.2,14.5c-8.9,3.7-18.4,5.6-28.2,5.6s-19.3-1.9-28.2-5.6c-8.6-3.6-16.3-8.7-22.9-15.2c-13.5-13.3-21-31-21-49.7s7.4-36.4,21-49.7c6.6-6.5,14.3-11.6,22.9-15.2c8.9-3.7,18.4-5.6,28.2-5.6s19.3,1.9,28.2,5.6c8.3,3.4,15.8,8.4,22.2,14.5l0.5,0.2l-10.9,10.9c-2.4,2.4-0.7,6.5,2.7,6.5h41.1c2.1,0,3.8-1.8,3.8-3.8V50.3C222,46.9,217.9,45.2,215.5,47.6z"/></svg>