<?xml version="1.0" encoding="utf-8"?>
<!-- Generator: Adobe Illustrator 27.8.1, SVG Export Plug-In . SVG Version: 6.00 Build 0)  -->
<svg version="1.0" id="圖層_1" xmlns="http://www.w3.org/2000/svg" xmlns:xlink="http://www.w3.org/1999/xlink" x="0px" y="0px"
	 viewBox="0 0 512 512" style="enable-background:new 0 0 512 512;" xml:space="preserve">
<style type="text/css">
	.st0{fill:#FFFFFF;}
</style>
<rect x="169.33" class="st0" width="4" height="512"/>
<rect x="0.01" y="-0.13" class="st0" width="4" height="512"/>
<rect x="338.67" class="st0" width="4" height="512"/>
<rect x="508" class="st0" width="4" height="512"/>
<rect x="254" y="84.67" transform="matrix(6.123234e-17 -1 1 6.123234e-17 -84.6667 596.6667)" class="st0" width="4" height="512"/>
<rect x="254" y="254" transform="matrix(6.123234e-17 -1 1 6.123234e-17 -254 766)" class="st0" width="4" height="512"/>
<rect x="254" y="-84.67" transform="matrix(6.123234e-17 -1 1 6.123234e-17 84.6667 427.3333)" class="st0" width="4" height="512"/>
<rect x="254" y="-254" transform="matrix(6.123234e-17 -1 1 6.123234e-17 254 258)" class="st0" width="4" height="512"/>
<polygon points="100,0 12,0 0,0 0,12 0,100 12,100 12,12 100,12 "/>
<polygon points="412,512 500,512 512,512 512,500 512,412 500,412 500,500 412,500 "/>
<polygon points="512,100 512,12 512,0 500,0 412,0 412,12 500,12 500,100 "/>
<polygon points="0,412 0,500 0,512 12,512 100,512 100,500 12,500 12,412 "/>
</svg>
